<mxfile host="app.diagrams.net" modified="2021-04-26T13:46:22.500Z" agent="5.0 (Windows NT 10.0; Win64; x64) AppleWebKit/537.36 (KHTML, like Gecko) Chrome/90.0.4430.85 Safari/537.36" etag="0dm0LRVMuZdBRIEc3V-s" version="14.6.6" type="github">
  <diagram id="5m5Voin4SM3H2P2Pd6Cd" name="Page-1">
    <mxGraphModel dx="965" dy="599" grid="1" gridSize="10" guides="1" tooltips="1" connect="1" arrows="1" fold="1" page="1" pageScale="1" pageWidth="827" pageHeight="1169" math="0" shadow="0">
      <root>
        <mxCell id="0" />
        <mxCell id="1" parent="0" />
        <mxCell id="raQYwQqgoV8NCNCDeqni-3" value="" style="edgeStyle=orthogonalEdgeStyle;rounded=0;orthogonalLoop=1;jettySize=auto;html=1;" edge="1" parent="1" source="raQYwQqgoV8NCNCDeqni-1" target="raQYwQqgoV8NCNCDeqni-2">
          <mxGeometry relative="1" as="geometry" />
        </mxCell>
        <mxCell id="raQYwQqgoV8NCNCDeqni-1" value="" style="rounded=1;whiteSpace=wrap;html=1;" vertex="1" parent="1">
          <mxGeometry x="310" y="130" width="120" height="60" as="geometry" />
        </mxCell>
        <mxCell id="raQYwQqgoV8NCNCDeqni-2" value="" style="rounded=1;whiteSpace=wrap;html=1;" vertex="1" parent="1">
          <mxGeometry x="310" y="270" width="120" height="60" as="geometry" />
        </mxCell>
      </root>
    </mxGraphModel>
  </diagram>
</mxfile>
